<mxfile host="" modified="2020-05-25T02:24:23.712Z" agent="5.0 (X11; Linux x86_64) AppleWebKit/537.36 (KHTML, like Gecko) Code/1.44.2 Chrome/78.0.3904.130 Electron/7.1.11 Safari/537.36" etag="pmm_aPM20QrKFgHY_uwg" version="13.1.3">
    <diagram id="6hGFLwfOUW9BJ-s0fimq" name="Page-1">
        <mxGraphModel dx="1117" dy="622" grid="1" gridSize="10" guides="1" tooltips="1" connect="1" arrows="1" fold="1" page="1" pageScale="1" pageWidth="827" pageHeight="1169" math="0" shadow="0">
            <root>
                <mxCell id="0"/>
                <mxCell id="1" parent="0"/>
                <mxCell id="2" value="BUGS" style="swimlane;fontStyle=0;childLayout=stackLayout;horizontal=1;startSize=22;horizontalStack=0;resizeParent=1;resizeParentMax=0;resizeLast=0;collapsible=1;marginBottom=0;align=center;fontSize=14;" vertex="1" parent="1">
                    <mxGeometry x="120" y="70" width="570" height="216" as="geometry">
                        <mxRectangle x="160" y="1100" width="70" height="22" as="alternateBounds"/>
                    </mxGeometry>
                </mxCell>
                <mxCell id="3" value="修建频谱为偶数那有点问题，尤其是对长宽不一样的图片，逆变换回来会丢失频率分量，猜测是边缘&#10;的低频信息丢失.解决：扩展代替修剪" style="text;strokeColor=none;fillColor=none;spacingLeft=4;spacingRight=4;overflow=hidden;rotatable=0;points=[[0,0.5],[1,0.5]];portConstraint=eastwest;fontSize=12;" vertex="1" parent="2">
                    <mxGeometry y="22" width="570" height="98" as="geometry"/>
                </mxCell>
                <mxCell id="4" value="对lena的逆变换像素会变化，而menglu不会,bug存在于dftConvert和idftConvert中" style="text;strokeColor=none;fillColor=none;spacingLeft=4;spacingRight=4;overflow=hidden;rotatable=0;points=[[0,0.5],[1,0.5]];portConstraint=eastwest;fontSize=12;" vertex="1" parent="2">
                    <mxGeometry y="120" width="570" height="96" as="geometry"/>
                </mxCell>
            </root>
        </mxGraphModel>
    </diagram>
</mxfile>